<svg xmlns="http://www.w3.org/2000/svg" shape-rendering="geometricPrecision" text-rendering="geometricPrecision" image-rendering="optimizeQuality" fill-rule="evenodd" clip-rule="evenodd" viewBox="0 0 512 511.995"><path fill="#ECCA43" fill-rule="nonzero" d="M256 0c70.689 0 134.693 28.659 181.015 74.984C483.341 121.306 512 185.311 512 256c0 70.684-28.659 134.689-74.985 181.015-46.326 46.322-110.33 74.98-181.015 74.98-70.685 0-134.689-28.658-181.015-74.98C28.659 390.689 0 326.684 0 256c0-70.689 28.659-134.694 74.985-181.016C121.311 28.659 185.315 0 256 0z"/><ellipse fill="#F7E259" cx="256" cy="255.998" rx="250.992" ry="250.991"/><path fill="#F8D548" d="M503.753 215.692A252.691 252.691 0 01506.989 256c0 138.614-112.371 250.988-250.989 250.988S5.007 394.614 5.007 256c0-21.858 2.801-43.056 8.051-63.271l246.435 183.476 244.26-160.513z"/><path fill="#D7925B" fill-rule="nonzero" d="M256 58.922c54.414 0 103.688 22.061 139.353 57.725 35.664 35.661 57.725 84.935 57.725 139.349 0 54.414-22.061 103.688-57.725 139.352-35.661 35.664-84.935 57.726-139.353 57.726-54.414 0-103.688-22.062-139.349-57.726-35.664-35.664-57.725-84.938-57.725-139.352s22.061-103.688 57.725-139.349C152.312 80.983 201.586 58.922 256 58.922z"/><circle fill="#EDA140" cx="256.001" cy="255.997" r="192.069"/><path fill="#C26A34" fill-rule="nonzero" d="M301.781 325.742l-1.627-.094a159.59 159.59 0 01-11.147-1.079c-3.66-.488-7.165-1.03-10.51-1.631a136.87 136.87 0 01-9.784-2.146v-27.713c4.076.364 8.493.659 13.221.897 4.727.246 9.537.424 14.389.542 4.856.113 9.368.178 13.561.178.284-.008.587.007.867.007 3.031 0 6.059-.311 9.027-.905a11.983 11.983 0 005.915-2.918 7.246 7.246 0 001.983-4.977c0-.136 0-.269-.007-.393v-2.108c.007-.141.007-.292.007-.432 0-2.18-1.04-4.224-2.8-5.499a11.044 11.044 0 00-6.294-1.976h-9.788c-13.909 0-24.457-3.058-31.641-9.17-7.176-6.124-10.756-16.37-10.734-30.744v-5.931c0-13.183 3.952-23.038 11.862-29.574 5.878-4.887 13.709-7.937 23.5-9.167v-14.11h19.416v13.724c2.441.124 4.882.325 7.1.571 4.894.534 9.651 1.2 14.015 1.964 4.372.765 8.319 1.635 11.786 2.43v27.705c-5.507-.466-11.714-.852-18.61-1.173-6.899-.31-13.163-.458-18.799-.436h-.541c-2.827 0-5.647.243-8.432.72a11.08 11.08 0 00-6.109 2.865 8.543 8.543 0 00-2.18 5.692c0 .201.007.401.03.594v1.809c-.015.193-.03.387-.03.579 0 2.4 1.037 4.671 2.85 6.241a13.932 13.932 0 007.755 2.37c.355 0 .711-.023 1.063-.046h11.858c.485-.007.988-.022 1.472-.022 6.783 0 13.47 1.642 19.473 4.78a31.229 31.229 0 0112.581 13.042 39.976 39.976 0 014.224 17.864v6.666c0 11.384-1.983 20.074-5.939 26.081a29.107 29.107 0 01-16.899 12.119 84.053 84.053 0 01-16.721 2.827v15.43h-19.363v-15.453zM212.664 217.58c-3.77 0-7.123.965-10.064 2.873-2.963 1.922-5.488 4.7-7.535 8.304-2.07 3.641-3.641 8.05-4.727 13.224-1.087 5.173-1.628 11.051-1.628 17.629 0 8.974.946 16.476 2.842 22.516 1.904 6.063 4.762 10.605 8.558 13.636 3.8 3.032 8.626 4.569 14.405 4.569 5.238 0 10.287-.825 15.169-2.521a136.72 136.72 0 0014.693-6.101v30.244a66.83 66.83 0 01-16.35 5.749c-5.689 1.212-11.756 1.821-18.175 1.821-12.872 0-23.507-2.846-31.97-8.497-8.459-5.65-14.757-13.731-18.909-24.208-4.152-10.476-6.196-22.931-6.196-37.401 0-10.506 1.317-20.085 3.929-28.741 2.623-8.683 6.404-16.177 11.434-22.452 5.03-6.271 11.191-11.131 18.462-14.564 7.255-3.429 15.521-5.174 24.813-5.174 6.389 0 12.778.773 19.227 2.298 6.479 1.536 12.808 3.959 19.068 7.346l-10.026 27.883c-4.315-2.43-8.656-4.447-13.031-6.037-4.406-1.601-9.073-2.396-13.989-2.396z"/><path fill="#F3DC6B" d="M206.658 211.574c-3.77 0-7.123.965-10.064 2.872-2.964 1.923-5.488 4.701-7.536 8.304-2.07 3.641-3.641 8.05-4.727 13.224-1.086 5.174-1.627 11.052-1.627 17.63 0 8.974.946 16.475 2.842 22.516 1.904 6.063 4.761 10.605 8.557 13.636 3.8 3.032 8.626 4.568 14.405 4.568 5.238 0 10.288-.825 15.17-2.52a136.825 136.825 0 0014.692-6.101v30.244a66.9 66.9 0 01-16.35 5.749c-5.688 1.211-11.756 1.821-18.174 1.821-12.873 0-23.508-2.847-31.971-8.497-8.459-5.651-14.756-13.731-18.909-24.208-4.151-10.476-6.195-22.932-6.195-37.401 0-10.507 1.317-20.086 3.928-28.742 2.623-8.682 6.404-16.176 11.434-22.451 5.03-6.272 11.192-11.131 18.462-14.564 7.256-3.429 15.522-5.174 24.814-5.174 6.388 0 12.777.772 19.226 2.298 6.48 1.536 12.808 3.958 19.068 7.346l-10.026 27.882c-4.314-2.43-8.655-4.447-13.031-6.037-4.405-1.601-9.072-2.395-13.988-2.395zm89.117 108.162l-1.628-.095a158.9 158.9 0 01-11.146-1.079 234.47 234.47 0 01-10.511-1.631 135.758 135.758 0 01-9.783-2.146v-27.712c4.076.363 8.493.658 13.22.897 4.727.246 9.538.424 14.39.541 4.855.113 9.367.178 13.56.178.285-.008.587.007.868.007 3.031 0 6.059-.31 9.026-.904a11.986 11.986 0 005.916-2.918 7.25 7.25 0 001.983-4.977c0-.136 0-.269-.008-.394v-2.108c.008-.14.008-.291.008-.431a6.788 6.788 0 00-2.801-5.5 11.043 11.043 0 00-6.294-1.975h-9.788c-13.909 0-24.457-3.059-31.64-9.171-7.176-6.124-10.757-16.369-10.734-30.744v-5.931c0-13.182 3.951-23.038 11.862-29.574 5.878-4.886 13.708-7.937 23.5-9.167v-14.109h19.415v13.723c2.442.125 4.883.326 7.101.572 4.893.533 9.651 1.199 14.015 1.964 4.371.765 8.319 1.635 11.785 2.43v27.705c-5.506-.466-11.713-.852-18.609-1.174-6.9-.31-13.164-.458-18.799-.435h-.541c-2.828 0-5.647.242-8.433.719a11.093 11.093 0 00-6.109 2.865 8.548 8.548 0 00-2.18 5.692c0 .201.008.402.031.595v1.809a7.017 7.017 0 00-.031.579 8.246 8.246 0 002.85 6.241 13.93 13.93 0 007.755 2.369c.356 0 .712-.022 1.064-.045h11.858c.484-.008.987-.023 1.472-.023 6.782 0 13.47 1.643 19.473 4.78a31.235 31.235 0 0112.58 13.043 39.956 39.956 0 014.224 17.864v6.665c0 11.385-1.983 20.075-5.938 26.081a29.106 29.106 0 01-16.899 12.119 83.99 83.99 0 01-16.722 2.827v15.431h-19.362v-15.453z"/></svg>