<svg xmlns="http://www.w3.org/2000/svg" shape-rendering="geometricPrecision" text-rendering="geometricPrecision" image-rendering="optimizeQuality" fill-rule="evenodd" clip-rule="evenodd" viewBox="0 0 512 511.995"><path fill="#ECCA43" fill-rule="nonzero" d="M256 0c70.685 0 134.689 28.659 181.015 74.984C483.341 121.306 512 185.315 512 256c0 70.684-28.659 134.689-74.985 181.015-46.326 46.322-110.33 74.98-181.015 74.98-70.685 0-134.689-28.658-181.015-74.98C28.659 390.689 0 326.684 0 256c0-70.685 28.659-134.694 74.985-181.016C121.307 28.659 185.311 0 256 0z"/><path fill="#F7E259" d="M256 5.007c138.618 0 250.993 112.374 250.993 250.993 0 138.614-112.375 250.988-250.993 250.988S5.007 394.614 5.007 256C5.007 117.381 117.382 5.007 256 5.007z"/><path fill="#F8D548" d="M503.753 215.692A252.691 252.691 0 01506.989 256c0 138.614-112.371 250.988-250.989 250.988S5.007 394.614 5.007 256c0-21.857 2.801-43.056 8.051-63.271l246.435 183.476 244.26-160.513z"/><path fill="#D7925B" fill-rule="nonzero" d="M256 58.922c54.414 0 103.688 22.061 139.353 57.725 35.664 35.661 57.725 84.935 57.725 139.349 0 54.417-22.061 103.692-57.725 139.352-35.665 35.664-84.939 57.726-139.353 57.726-54.414 0-103.688-22.062-139.349-57.726-35.664-35.664-57.725-84.938-57.725-139.352s22.061-103.688 57.725-139.349C152.312 80.983 201.586 58.922 256 58.922z"/><path fill="#EDA140" d="M256 63.929c106.076 0 192.071 85.994 192.071 192.067 0 106.076-85.995 192.071-192.071 192.071-106.073 0-192.067-85.995-192.067-192.071 0-106.073 85.994-192.067 192.067-192.067z"/><path fill="#C26A34" d="M203.582 153.687H335.3a3.571 3.571 0 013.559 3.559v32.643a3.578 3.578 0 01-3.559 3.559h-93.16v39.035h70.001c1.959 0 3.559 1.624 3.559 3.56v32.642c0 1.936-1.623 3.559-3.559 3.559H242.14v30.98h21.215c1.917 0 3.484 1.587 3.484 3.484v25.063c0 1.899-1.588 3.484-3.484 3.484H242.14v25.494c0 1.939-1.62 3.559-3.559 3.559h-31.44c-1.938 0-3.559-1.6-3.559-3.559v-25.494h-20.945c-1.905 0-3.484-1.571-3.484-3.484v-25.063a3.496 3.496 0 013.484-3.484h20.945V153.687z"/><path fill="#F3DC6B" d="M197.576 147.681h131.718a3.571 3.571 0 013.559 3.559v32.643a3.578 3.578 0 01-3.559 3.559h-93.16v39.035h70.001c1.959 0 3.559 1.623 3.559 3.559v32.643c0 1.936-1.623 3.559-3.559 3.559h-70.001v30.98h21.215c1.917 0 3.483 1.587 3.483 3.483v25.064c0 1.898-1.587 3.483-3.483 3.483h-21.215v25.495c0 1.938-1.621 3.559-3.559 3.559h-31.44c-1.939 0-3.559-1.6-3.559-3.559v-25.495H176.63c-1.904 0-3.483-1.57-3.483-3.483v-25.064a3.495 3.495 0 013.483-3.483h20.946V147.681z"/></svg>