<svg xmlns="http://www.w3.org/2000/svg" shape-rendering="geometricPrecision" text-rendering="geometricPrecision" image-rendering="optimizeQuality" fill-rule="evenodd" clip-rule="evenodd" viewBox="0 0 512 511.995"><path fill="#ECCA43" fill-rule="nonzero" d="M256 0c70.685 0 134.689 28.659 181.015 74.984C483.341 121.306 512 185.311 512 256c0 70.684-28.659 134.689-74.985 181.015-46.326 46.322-110.33 74.98-181.015 74.98-70.685 0-134.689-28.658-181.015-74.98C28.659 390.689 0 326.684 0 256c0-70.689 28.659-134.694 74.985-181.016C121.307 28.659 185.311 0 256 0z"/><path fill="#F7E259" d="M256 5.007c138.616 0 250.991 112.374 250.991 250.991 0 138.617-112.375 250.991-250.991 250.991-138.617 0-250.992-112.374-250.992-250.991C5.008 117.381 117.383 5.007 256 5.007z"/><path fill="#F8D548" d="M503.753 215.692A252.691 252.691 0 01506.989 256c0 138.614-112.371 250.988-250.989 250.988S5.007 394.614 5.007 256c0-21.858 2.801-43.056 8.051-63.271l246.435 183.476 244.26-160.513z"/><path fill="#D7925B" fill-rule="nonzero" d="M256 58.922c54.414 0 103.688 22.061 139.353 57.725 35.664 35.661 57.725 84.935 57.725 139.349 0 54.414-22.061 103.688-57.725 139.352-35.665 35.664-84.939 57.726-139.353 57.726-54.414 0-103.688-22.062-139.349-57.726-35.664-35.664-57.725-84.938-57.725-139.352s22.061-103.688 57.725-139.349C152.312 80.983 201.586 58.922 256 58.922z"/><path fill="#EDA140" d="M256.001 63.928c106.075 0 192.069 85.994 192.069 192.069 0 106.075-85.994 192.069-192.069 192.069-106.076 0-192.069-85.994-192.069-192.069 0-106.075 85.993-192.069 192.069-192.069z"/><path fill="#C26A34" fill-rule="nonzero" d="M336.957 311.027l-1.328-.079a127.956 127.956 0 01-8.683-.84c-2.835-.364-5.586-.8-8.191-1.257a88.072 88.072 0 01-7.561-1.68v-21.567c3.175.281 6.609.515 10.29.7 3.69.187 7.431.334 11.204.421 3.773.087 7.304.14 10.571.14 3.08 0 5.65-.235 7.701-.701 2.052-.462 3.596-1.215 4.621-2.24 1.023-1.026 1.542-2.427 1.542-4.198v-1.68c0-2.055-.735-3.603-2.173-4.622-1.438-1.017-3.169-1.539-5.109-1.539h-7.423c-10.81 0-19.048-2.388-24.643-7.142-5.594-4.754-8.401-12.743-8.401-23.943v-4.621c0-10.269 3.092-17.956 9.242-23.035 4.595-3.792 10.718-6.183 18.341-7.141v-10.992h15.123v10.685c1.9.105 3.755.258 5.531.447 3.871.409 7.516.934 10.922 1.54 3.407.606 6.465 1.238 9.17 1.889v21.565a326.444 326.444 0 00-14.491-.911c-5.359-.224-10.245-.35-14.632-.35-2.612 0-4.955.193-7.001.561-2.048.367-3.642 1.121-4.762 2.24-1.121 1.121-1.68 2.772-1.68 4.902v1.401c0 2.315.756 4.113 2.24 5.317 1.488 1.208 3.781 1.821 6.862 1.821h9.242c6.532 0 11.971 1.24 16.312 3.712 4.342 2.471 7.611 5.833 9.803 10.083 2.191 4.242 3.289 9.095 3.289 14.492v4.621c0 8.85-1.547 15.643-4.621 20.302-3.069 4.659-7.475 7.827-13.16 9.45-3.826 1.09-8.174 1.832-13.024 2.188v12.025h-15.123v-11.964zm-201.828-.636V206.354h21.565l36.543 57.968v-57.968h27.167v104.037h-21.566l-36.546-57.972v57.972h-27.163zm94.945 0v-21.565l38.786-58.108h-38.786v-24.364h71.831v21.563l-38.785 58.108h38.785v24.366h-71.831z"/><path fill="#F3DC6B" fill-rule="nonzero" d="M330.951 305.02l-1.329-.079a128.018 128.018 0 01-8.683-.84 179.024 179.024 0 01-8.19-1.257 87.803 87.803 0 01-7.562-1.68v-21.566c3.176.28 6.609.514 10.291.699 3.69.187 7.43.334 11.203.421 3.774.087 7.305.14 10.571.14 3.08 0 5.651-.235 7.701-.701 2.053-.461 3.597-1.214 4.622-2.24 1.022-1.025 1.541-2.426 1.541-4.197v-1.681c0-2.054-.734-3.602-2.172-4.621-1.438-1.018-3.169-1.54-5.11-1.54h-7.422c-10.81 0-19.049-2.388-24.644-7.142-5.593-4.753-8.401-12.743-8.401-23.942v-4.621c0-10.269 3.092-17.956 9.243-23.035 4.594-3.792 10.718-6.184 18.341-7.142v-10.991h15.123v10.684c1.9.106 3.755.258 5.53.447 3.872.409 7.516.934 10.923 1.541 3.407.605 6.464 1.238 9.17 1.889v21.565c-4.292-.375-9.133-.685-14.491-.912-5.36-.223-10.245-.349-14.633-.349-2.611 0-4.954.193-7.001.561-2.048.366-3.641 1.12-4.762 2.24-1.12 1.12-1.68 2.771-1.68 4.902v1.401c0 2.315.757 4.113 2.24 5.317 1.489 1.208 3.781 1.82 6.863 1.82h9.242c6.532 0 11.971 1.241 16.312 3.713 4.342 2.471 7.611 5.833 9.803 10.082 2.191 4.243 3.289 9.096 3.289 14.492v4.622c0 8.849-1.548 15.643-4.621 20.301-3.07 4.66-7.475 7.827-13.16 9.451-3.826 1.09-8.175 1.832-13.024 2.188v12.025h-15.123V305.02zm-201.828-.636V200.348h21.564l36.543 57.968v-57.968h27.167v104.036h-21.565l-36.547-57.972v57.972h-27.162zm94.944 0v-21.565l38.787-58.108h-38.787v-24.363h71.832v21.563l-38.786 58.107h38.786v24.366h-71.832z"/></svg>